<?xml version="1.0" standalone="no"?>
<!DOCTYPE svg PUBLIC "-//W3C//DTD SVG 20010904//EN"
 "http://www.w3.org/TR/2001/REC-SVG-20010904/DTD/svg10.dtd">
<svg version="1.0" xmlns="http://www.w3.org/2000/svg"
 width="247.000000pt" height="167.000000pt" viewBox="0 0 247.000000 167.000000"
 preserveAspectRatio="xMidYMid meet">
<metadata>
Created by potrace 1.15, written by Peter Selinger 2001-2017
</metadata>
<g transform="translate(0.000000,167.000000) scale(0.100000,-0.100000)"
fill="#000000" stroke="none">
<path d="M40 1659 c0 -5 -4 -8 -10 -4 -5 3 -13 -8 -17 -25 -13 -51 -8 -1576 5
-1593 7 -8 10 -16 7 -19 -3 -2 1 -6 8 -7 6 -1 551 -3 1209 -4 971 -2 1199 0
1210 11 10 10 13 171 14 817 0 520 -3 802 -10 798 -5 -4 -7 0 -3 9 4 11 -2 18
-16 22 -42 11 -2397 7 -2397 -5z m163 -177 c4 -66 12 -153 18 -195 l11 -76
-58 -70 c-32 -39 -59 -71 -61 -71 -2 0 -3 119 -3 265 l0 265 43 0 44 0 6 -118z
m392 108 c-10 -17 5 -49 26 -55 12 -4 39 6 78 29 l59 36 478 0 479 0 58 -36
c51 -31 62 -35 83 -25 16 7 24 19 24 36 l0 25 150 0 150 0 -1 -102 c0 -57 -4
-123 -7 -148 l-7 -45 -40 48 c-34 40 -45 47 -70 45 -25 -2 -31 -8 -33 -31 -3
-23 18 -54 127 -183 72 -85 131 -163 131 -172 -1 -51 -22 -213 -35 -266 -9
-33 -30 -96 -47 -138 l-30 -78 -405 0 -404 0 -39 33 c-55 45 -54 76 3 116 70
48 101 87 101 125 0 70 -51 96 -189 96 -140 0 -185 -24 -185 -99 0 -37 50 -97
104 -126 32 -17 36 -24 36 -57 0 -21 -4 -38 -9 -38 -5 0 -19 -11 -32 -25 l-24
-25 -408 0 -408 0 -30 66 c-45 98 -69 206 -76 329 l-5 110 117 139 c147 176
149 179 135 205 -18 35 -54 26 -98 -24 -24 -28 -43 -42 -47 -35 -4 6 -9 71
-12 145 l-6 135 157 0 c103 0 155 -3 151 -10z m1765 -257 c0 -146 -2 -264 -4
-262 -2 2 -29 35 -61 74 -50 61 -56 73 -50 102 13 70 25 202 25 276 l0 77 45
0 45 0 0 -267z m-2191 -687 c15 -45 32 -89 36 -98 6 -16 1 -18 -44 -18 l-51 0
1 183 1 182 14 -84 c8 -47 27 -121 43 -165z m1861 -306 c16 -16 20 -33 20 -95
0 -43 -4 -75 -10 -75 -5 0 -10 5 -10 10 0 7 -6 7 -19 0 -26 -14 -64 -13 -79 2
-7 7 -12 24 -12 40 0 31 39 58 85 58 21 0 26 4 23 21 -5 33 -32 46 -68 32 -35
-13 -41 -1 -7 15 34 16 55 14 77 -8z"/>
<path d="M650 1112 c-18 -15 -21 -24 -15 -55 34 -181 286 -181 320 0 6 31 3
40 -14 54 -28 23 -60 13 -67 -20 -10 -46 -26 -70 -54 -79 -39 -14 -88 9 -95
45 -11 47 -13 51 -34 62 -15 8 -24 7 -41 -7z"/>
<path d="M1538 1119 c-42 -24 -11 -124 53 -171 100 -74 274 30 245 146 -12 49
-86 29 -86 -24 0 -31 -36 -60 -74 -60 -39 0 -76 37 -76 76 0 13 -9 28 -19 34
-23 12 -22 12 -43 -1z"/>
<path d="M542 858 c-16 -16 -15 -53 1 -66 7 -6 52 -16 99 -23 93 -13 118 -6
118 30 0 32 -18 42 -106 56 -108 18 -98 17 -112 3z"/>
<path d="M1820 856 c-36 -7 -75 -18 -87 -24 -26 -15 -30 -44 -8 -62 23 -19
183 4 209 30 18 18 18 20 2 44 -18 29 -22 29 -116 12z"/>
<path d="M632 660 c-82 -20 -107 -37 -98 -68 10 -31 32 -34 120 -16 107 21
139 50 100 88 -19 19 -28 19 -122 -4z"/>
<path d="M1716 658 c-28 -39 -2 -60 102 -82 96 -20 122 -15 122 23 0 32 -18
43 -101 62 -106 23 -105 23 -123 -3z"/>
</g>
</svg>
